<svg width="570" height="310" viewBox="0 0 570 310" fill="none" xmlns="http://www.w3.org/2000/svg">
  <defs>
    <radialGradient id="glow" cx="0" cy="0" r="1" gradientTransform="translate(285 154) rotate(90) scale(144 235)" gradientUnits="userSpaceOnUse">
      <stop stop-color="#FF9D00" stop-opacity=".34"/>
      <stop offset="1" stop-color="#FF6A00" stop-opacity="0"/>
    </radialGradient>
    <linearGradient id="line" x1="110" y1="60" x2="458" y2="255" gradientUnits="userSpaceOnUse">
      <stop stop-color="#FFD15C"/>
      <stop offset="1" stop-color="#FF7A00"/>
    </linearGradient>
  </defs>
  <rect x="1" y="1" width="568" height="308" rx="26" fill="#0C0C0E" stroke="#FF9D00" stroke-opacity=".22"/>
  <rect x="1" y="1" width="568" height="308" rx="26" fill="url(#glow)"/>
  <circle cx="285" cy="145" r="70" stroke="url(#line)" stroke-width="2"/>
  <ellipse cx="285" cy="145" rx="32" ry="70" stroke="#FFAD1A" stroke-opacity=".72" stroke-width="1.5"/>
  <path d="M218 122H352M218 168H352M285 75V215" stroke="#FFAD1A" stroke-opacity=".72" stroke-width="1.5"/>
  <circle cx="285" cy="145" r="91" stroke="#FF9D00" stroke-opacity=".18" stroke-dasharray="5 8"/>
  <g font-family="Arial, sans-serif" font-size="14" font-weight="600">
    <g>
      <rect x="46" y="78" width="118" height="42" rx="21" fill="#18181B" stroke="#FF9D00" stroke-opacity=".38"/>
      <circle cx="68" cy="99" r="10" fill="#FF9D00"/>
      <text x="87" y="104" fill="#F8F8F8">DEUTSCH</text>
    </g>
    <g>
      <rect x="405" y="78" width="119" height="42" rx="21" fill="#18181B" stroke="#FF9D00" stroke-opacity=".38"/>
      <circle cx="427" cy="99" r="10" fill="#FFB735"/>
      <text x="446" y="104" fill="#F8F8F8">ENGLISH</text>
    </g>
    <g>
      <rect x="35" y="190" width="128" height="42" rx="21" fill="#18181B" stroke="#FF9D00" stroke-opacity=".38"/>
      <circle cx="57" cy="211" r="10" fill="#FF7A00"/>
      <text x="76" y="216" fill="#F8F8F8">FRANÇAIS</text>
    </g>
    <g>
      <rect x="399" y="190" width="136" height="42" rx="21" fill="#18181B" stroke="#FF9D00" stroke-opacity=".38"/>
      <circle cx="421" cy="211" r="10" fill="#FFD15C"/>
      <text x="440" y="216" fill="#F8F8F8">ITALIANO</text>
    </g>
  </g>
  <rect x="204" y="240" width="162" height="38" rx="19" fill="#FF9600"/>
  <text x="285" y="264" text-anchor="middle" fill="#090909" font-family="Arial, sans-serif" font-size="14" font-weight="700">MEHRSPRACHIG</text>
</svg>